<svg xmlns="http://www.w3.org/2000/svg" viewBox="0 0 720 430" role="img" aria-labelledby="title desc"><title id="title">Persistent context</title><desc id="desc">Notes are indexed and retrieved for a later session</desc>
<defs><marker id="arrow" markerWidth="8" markerHeight="8" refX="7" refY="4" orient="auto-start-reverse"><path d="M0 0L8 4L0 8" fill="#2774a5"/></marker></defs>
<rect x="1" y="1" width="718" height="428" rx="8" fill="#fff" stroke="#e0e6ea"/>
<text x="32" y="41" text-anchor="start" font-family="Arial,Helvetica,sans-serif" font-size="17" fill="#73838e">PERSISTENT CONTEXT</text>
<rect x="45" y="100" width="100" height="112" rx="5" fill="#fff" stroke="#9aafbd" stroke-width="2"/>
<polyline points="61,124 119,124" fill="none" stroke="#73838e" stroke-width="2" stroke-linejoin="round"/>
<polyline points="61,142 125,142" fill="none" stroke="#73838e" stroke-width="2" stroke-linejoin="round"/>
<polyline points="61,160 108,160" fill="none" stroke="#73838e" stroke-width="2" stroke-linejoin="round"/>
<text x="95" y="194" text-anchor="middle" font-family="Arial,Helvetica,sans-serif" font-size="17" fill="#263b4a">Session 1</text>
<rect x="72" y="128" width="100" height="112" rx="5" fill="#fff" stroke="#9aafbd" stroke-width="2"/>
<polyline points="88,152 146,152" fill="none" stroke="#73838e" stroke-width="2" stroke-linejoin="round"/>
<polyline points="88,170 152,170" fill="none" stroke="#73838e" stroke-width="2" stroke-linejoin="round"/>
<polyline points="88,188 135,188" fill="none" stroke="#73838e" stroke-width="2" stroke-linejoin="round"/>
<text x="122" y="222" text-anchor="middle" font-family="Arial,Helvetica,sans-serif" font-size="17" fill="#263b4a">Session 2</text>
<polyline points="178,182 274,182" fill="none" stroke="#2774a5" stroke-width="2.5" stroke-linejoin="round" marker-end="url(#arrow)"/>
<rect x="285" y="102" width="160" height="172" rx="5" fill="#edf5f4" stroke="#94b5ad" stroke-width="2"/>
<polyline points="309,131 419,131" fill="none" stroke="#39877d" stroke-width="4" stroke-linejoin="round"/>
<polyline points="309,157 419,157" fill="none" stroke="#39877d" stroke-width="4" stroke-linejoin="round"/>
<polyline points="309,183 419,183" fill="none" stroke="#39877d" stroke-width="4" stroke-linejoin="round"/>
<text x="365" y="224" text-anchor="middle" font-family="Arial,Helvetica,sans-serif" font-size="19" fill="#263b4a">Memory index</text>
<text x="365" y="252" text-anchor="middle" font-family="Arial,Helvetica,sans-serif" font-size="15" fill="#73838e">persistent storage</text>
<polyline points="446,182 527,182" fill="none" stroke="#2774a5" stroke-width="2.5" stroke-linejoin="round" marker-end="url(#arrow)"/>
<rect x="540" y="140" width="137" height="86" rx="5" fill="#eaf3fa" stroke="#9aafbd" stroke-width="2"/>
<text x="608.5" y="190.0" text-anchor="middle" font-family="Arial,Helvetica,sans-serif" font-size="21" fill="#263b4a">Context</text>
<rect x="285" y="313" width="160" height="46" rx="5" fill="#fff" stroke="#9aafbd" stroke-width="2"/>
<text x="365.0" y="343.0" text-anchor="middle" font-family="Arial,Helvetica,sans-serif" font-size="21" fill="#263b4a">Query</text>
<polyline points="365,313 365,281" fill="none" stroke="#2774a5" stroke-width="2.5" stroke-linejoin="round" marker-end="url(#arrow)"/>
<text x="583" y="264" text-anchor="middle" font-family="Arial,Helvetica,sans-serif" font-size="17" fill="#73838e">ranked matches</text>
<text x="360" y="403" text-anchor="middle" font-family="Arial,Helvetica,sans-serif" font-size="18" fill="#73838e">Store once · retrieve across sessions</text>
</svg>